#!OML:ASF E:\Style6\Style6.ASF
:FULLY-SPECIFIED
:DEGREES
2552
root -0.968874 17.4628 -0.17643 7.57265 8.49136 1.25085
lowerback 13.5116 -0.9768 3.36176
upperback 2.46711 -0.480159 5.53349
thorax -4.95688 -0.244273 4.02881
lowerneck -10.302 -1.28954 3.53718
upperneck -19.6892 -4.09112 -14.9301
head -4.50944 -1.65017 -5.31495
rclavicle -1.35174e-014 -6.04305e-014
rhumerus 66.8169 -32.707 -27.975
rradius 65.9011
rwrist -13.6817
rhand -19.3036 6.51153
rfingers 7.12502
rthumb 7.01204 -23.3523
lclavicle -1.35174e-014 -6.04305e-014
lhumerus 48.3574 1.27339 -22.9697
lradius 84.6302
lwrist 46.9081
lhand 12.0336 12.725
lfingers 7.12502
lthumb 37.0525 38.7759
rfemur -29.784 -14.1971 24.0517
rtibia 42.2598
rfoot -14.5101 -7.69164
rtoes -8.39065
lfemur -27.8747 13.4627 -15.8431
ltibia 36.9161
lfoot -11.1112 -12.7762
ltoes -13.0655
2553
root -0.96975 17.4642 -0.17402 7.57443 8.54179 1.25104
lowerback 13.4904 -0.981848 3.31185
upperback 2.46346 -0.496096 5.51799
thorax -4.94805 -0.251454 4.0428
lowerneck -9.84338 -1.2367 4.10771
upperneck -20.2327 -4.20593 -15.4884
head -4.77216 -1.68253 -5.60613
rclavicle 7.15625e-015 -1.22451e-013
rhumerus 67.565 -32.8738 -28.9055
rradius 65.4958
rwrist -13.5522
rhand -19.4063 6.74112
rfingers 7.12502
rthumb 6.91291 -23.126
lclavicle 7.15625e-015 -1.22451e-013
lhumerus 48.1984 1.58809 -22.8678
lradius 84.5625
lwrist 46.8673
lhand 11.7483 12.6975
lfingers 7.12502
lthumb 36.7826 38.8179
rfemur -29.7525 -14.2235 24.061
rtibia 42.2271
rfoot -14.5041 -7.72552
rtoes -8.35015
lfemur -27.8721 13.4346 -15.8444
ltibia 36.9037
lfoot -11.1412 -12.7352
ltoes -13.4769
2554
root -0.970069 17.464 -0.171542 7.56093 8.61242 1.20477
lowerback 13.4655 -0.960038 3.30435
upperback 2.47127 -0.470109 5.52444
thorax -4.92717 -0.238466 4.04844
lowerneck -10.4958 -1.27986 3.61702
upperneck -19.5196 -4.07043 -15.0133
head -4.42464 -1.65598 -5.35603
rclavicle -7.95139e-016 -3.33958e-014
rhumerus 68.1272 -33.0804 -29.6641
rradius 65.186
rwrist -13.399
rhand -19.513 6.79665
rfingers 7.12502
rthumb 6.80994 -23.0738
lclavicle -7.95139e-016 -3.33958e-014
lhumerus 48.0267 1.94725 -22.5924
lradius 84.5389
lwrist 46.623
lhand 11.3867 12.5142
lfingers 7.12502
lthumb 36.4403 38.7213
rfemur -29.7167 -14.2471 24.1076
rtibia 42.2026
rfoot -14.4967 -7.72463
rtoes -8.31831
lfemur -27.8532 13.385 -15.7836
ltibia 36.8753
lfoot -11.1694 -12.7534
ltoes -13.634
2555
root -0.970359 17.4631 -0.168817 7.57473 8.69013 1.20625
lowerback 13.421 -0.925488 3.27249
upperback 2.47631 -0.433321 5.5076
thorax -4.89893 -0.219973 4.04059
lowerneck -11.6038 -1.38741 2.54131
upperneck -18.3009 -3.8323 -13.9714
head -3.83813 -1.59719 -4.82297
rclavicle 7.15625e-015 -1.90833e-014
rhumerus 68.6512 -33.3127 -30.3793
rradius 64.9563
rwrist -13.4331
rhand -19.6991 6.69199
rfingers 7.12502
rthumb 6.63029 -23.1842
lclavicle 7.15625e-015 -1.90833e-014
lhumerus 47.8906 2.34097 -22.309
lradius 84.5573
lwrist 46.2212
lhand 11.0824 12.2772
lfingers 7.12502
lthumb 36.1522 38.5561
rfemur -29.7126 -14.2608 24.1063
rtibia 42.1914
rfoot -14.5075 -7.77687
rtoes -8.06263
lfemur -27.8567 13.274 -15.7686
ltibia 36.8494
lfoot -11.1167 -12.7239
ltoes -13.4198
2556
root -0.971292 17.4654 -0.166447 7.53585 8.74913 1.26712
lowerback 13.4451 -0.909491 3.18579
upperback 2.50904 -0.427475 5.46107
thorax -4.87745 -0.216134 4.03877
lowerneck -11.7311 -1.41449 2.47207
upperneck -18.2352 -3.83905 -13.8659
head -3.7979 -1.60663 -4.77786
rclavicle 1.35174e-014 1.90833e-014
rhumerus 69.2275 -33.4972 -31.1245
rradius 64.6941
rwrist -13.5972
rhand -19.8987 6.75939
rfingers 7.12502
rthumb 6.43762 -23.1228
lclavicle 1.35174e-014 1.90833e-014
lhumerus 47.832 2.71875 -22.1882
lradius 84.4876
lwrist 46.08
lhand 10.7495 12.2152
lfingers 7.12502
lthumb 35.8369 38.5716
rfemur -29.639 -14.2447 24.0257
rtibia 42.1861
rfoot -14.5396 -7.86521
rtoes -7.99051
lfemur -27.7786 13.1742 -15.8002
ltibia 36.8198
lfoot -11.0821 -12.7457
ltoes -13.0788
2557
root -0.972399 17.4668 -0.163955 7.49683 8.79827 1.20797
lowerback 13.4734 -0.908736 3.19446
upperback 2.50717 -0.423811 5.44837
thorax -4.89535 -0.214497 4.02045
lowerneck -11.257 -1.36936 3.00812
upperneck -18.7659 -3.95221 -14.3383
head -4.05173 -1.64106 -5.02548
rclavicle -4.29375e-014 -4.77083e-015
rhumerus 69.8427 -33.6025 -31.9789
rradius 64.3527
rwrist -13.5825
rhand -20.0163 7.00115
rfingers 7.12502
rthumb 6.32411 -22.8844
lclavicle -4.29375e-014 -4.77083e-015
lhumerus 47.7719 3.03913 -22.062
lradius 84.3576
lwrist 46.1213
lhand 10.4643 12.1621
lfingers 7.12502
lthumb 35.5666 38.5839
rfemur -29.5797 -14.1761 24.083
rtibia 42.1762
rfoot -14.5597 -8.01156
rtoes -8.51147
lfemur -27.7413 13.1273 -15.7083
ltibia 36.8036
lfoot -11.0448 -12.7905
ltoes -12.7618
2558
root -0.973638 17.4651 -0.162266 7.49706 8.85244 1.21392
lowerback 13.4833 -0.904775 3.11621
upperback 2.48343 -0.427759 5.44372
thorax -4.92515 -0.215239 4.06147
lowerneck -11.6522 -1.38125 2.64476
upperneck -18.3092 -3.8331 -13.9962
head -3.83411 -1.60364 -4.84993
rclavicle -2.62396e-014 -1.90833e-014
rhumerus 70.4896 -33.6611 -32.8717
rradius 64.0625
rwrist -13.2663
rhand -20.1529 7.22132
rfingers 7.12502
rthumb 6.19217 -22.6682
lclavicle -2.62396e-014 -1.90833e-014
lhumerus 47.6158 3.35678 -21.8657
lradius 84.3426
lwrist 46.4185
lhand 9.25598 11.9324
lfingers 7.12502
lthumb 34.4203 38.6219
rfemur -29.5609 -14.1274 24.0775
rtibia 42.1744
rfoot -14.5867 -8.12565
rtoes -8.48169
lfemur -27.7432 13.0968 -15.7089
ltibia 36.7798
lfoot -10.9592 -12.8244
ltoes -12.5203
2559
root -0.973023 17.4665 -0.159958 7.48995 8.92406 1.24771
lowerback 13.4874 -0.907793 3.05693
upperback 2.47316 -0.440004 5.42907
thorax -4.93738 -0.220401 4.08197
lowerneck -11.8131 -1.40109 2.56044
upperneck -18.1639 -3.82196 -13.9105
head -3.76251 -1.6074 -4.80791
rclavicle -2.3059e-014 -1.90833e-014
rhumerus 71.1575 -33.7101 -33.7695
rradius 63.863
rwrist -13.0054
rhand -20.2955 7.20357
rfingers 7.12502
rthumb 6.05455 -22.6899
lclavicle -2.3059e-014 -1.90833e-014
lhumerus 47.488 3.75161 -21.5884
lradius 84.3261
lwrist 46.9596
lhand 8.02819 11.7872
lfingers 7.12502
lthumb 33.2538 38.7335
rfemur -29.5196 -14.1169 24.0238
rtibia 42.1649
rfoot -14.6368 -8.15246
rtoes -8.14582
lfemur -27.7234 13.0372 -15.7413
ltibia 36.7501
lfoot -10.9571 -12.8119
ltoes -12.7322
2560
root -0.971418 17.4695 -0.158092 7.45499 8.98393 1.24087
lowerback 13.5162 -0.896704 3.07573
upperback 2.46785 -0.421282 5.41145
thorax -4.95998 -0.211503 4.05004
lowerneck -11.4919 -1.40233 2.97144
upperneck -18.5494 -3.95812 -14.2986
head -3.94829 -1.65995 -5.00629
rclavicle -3.49861e-014 -1.11319e-014
rhumerus 71.7631 -33.7633 -34.5768
rradius 63.6315
rwrist -12.684
rhand -20.4585 7.07675
rfingers 7.12502
rthumb 5.8972 -22.8212
lclavicle -3.49861e-014 -1.11319e-014
lhumerus 47.4194 4.19622 -21.2725
lradius 84.2797
lwrist 47.4909
lhand 7.82496 11.9462
lfingers 7.12502
lthumb 33.0606 38.9336
rfemur -29.4555 -14.1109 24.0156
rtibia 42.1583
rfoot -14.6511 -8.26433
rtoes -8.71848
lfemur -27.6655 12.9887 -15.7278
ltibia 36.7041
lfoot -10.9637 -12.7941
ltoes -12.8897
2561
root -0.97021 17.4725 -0.154633 7.45027 9.03055 1.27086
lowerback 13.5005 -0.874335 3.02744
upperback 2.46587 -0.400032 5.40224
thorax -4.95419 -0.200354 4.06346
lowerneck -11.847 -1.44691 2.61638
upperneck -18.1853 -3.89891 -13.9834
head -3.77147 -1.6463 -4.84225
rclavicle 1.43125e-014 -1.03368e-013
rhumerus 72.3076 -33.8123 -35.2887
rradius 63.424
rwrist -12.4083
rhand -20.6353 7.07887
rfingers 7.12502
rthumb 5.72651 -22.8237
lclavicle 1.43125e-014 -1.03368e-013
lhumerus 47.3031 4.50402 -21.0712
lradius 84.2033
lwrist 47.3018
lhand 7.86461 11.9688
lfingers 7.12502
lthumb 33.0983 38.9483
rfemur -29.3997 -14.1063 23.9688
rtibia 42.1298
rfoot -14.6873 -8.26506
rtoes -8.48101
lfemur -27.629 13.0022 -15.7718
ltibia 36.6598
lfoot -10.9944 -12.8221
ltoes -13.1704
2562
root -0.969825 17.4724 -0.151777 7.43435 9.08143 1.2682
lowerback 13.5024 -0.853718 3.00499
upperback 2.46068 -0.376454 5.38548
thorax -4.96184 -0.188483 4.05427
lowerneck -12.3791 -1.5084 2.13825
upperneck -17.6113 -3.80208 -13.5006
head -3.49934 -1.62619 -4.60458
rclavicle 3.18055e-015 6.36111e-015
rhumerus 72.8258 -33.8484 -36.007
rradius 63.1997
rwrist -12.1544
rhand -20.8112 6.99539
rfingers 7.12502
rthumb 5.5566 -22.9118
lclavicle 3.18055e-015 6.36111e-015
lhumerus 47.2454 4.65838 -21.0498
lradius 84.0057
lwrist 46.5576
lhand 7.92641 11.9914
lfingers 7.12502
lthumb 33.1571 38.9583
rfemur -29.3406 -14.0965 23.9623
rtibia 42.0815
rfoot -14.6835 -8.32861
rtoes -8.53575
lfemur -27.5941 13.0042 -15.7596
ltibia 36.6328
lfoot -10.9613 -12.884
ltoes -13.1079
2563
root -0.969426 17.473 -0.148748 7.41213 9.16975 1.17862
lowerback 13.4701 -0.84906 3.11835
upperback 2.44223 -0.356527 5.35963
thorax -4.96543 -0.180524 3.95825
lowerneck -12.4047 -1.55554 2.10286
upperneck -17.568 -3.84395 -13.397
head -3.48516 -1.64989 -4.56526
rclavicle 7.15625e-015 -2.22639e-014
rhumerus 73.2978 -33.8833 -36.7559
rradius 62.9877
rwrist -11.9305
rhand -21.1318 7.05411
rfingers 7.12502
rthumb 5.24709 -22.8609
lclavicle 7.15625e-015 -2.22639e-014
lhumerus 47.231 4.86818 -21.0081
lradius 83.8255
lwrist 46.0942
lhand 8.05946 11.9589
lfingers 7.12502
lthumb 33.2836 38.8988
rfemur -29.2742 -14.1228 24.0574
rtibia 42.0242
rfoot -14.7031 -8.34831
rtoes -8.12341
lfemur -27.5867 12.9634 -15.6488
ltibia 36.6191
lfoot -10.831 -13.0074
ltoes -12.2329
2564
root -0.968207 17.4747 -0.144531 7.38915 9.24774 1.12553
lowerback 13.405 -0.838098 3.2088
upperback 2.44938 -0.336412 5.31798
thorax -4.92365 -0.172287 3.8569
lowerneck -12.4256 -1.59793 2.15883
upperneck -17.5481 -3.90278 -13.3929
head -3.48132 -1.68357 -4.57395
rclavicle 1.59028e-015 1.27222e-014
rhumerus 73.7946 -33.9311 -37.5114
rradius 62.7817
rwrist -11.7316
rhand -21.4589 7.19369
rfingers 7.12502
rthumb 4.93123 -22.7289
lclavicle 1.59028e-015 1.27222e-014
lhumerus 47.1509 5.23801 -20.8809
lradius 83.6855
lwrist 45.979
lhand 8.09636 11.7309
lfingers 7.12502
lthumb 33.3186 38.6633
rfemur -29.1904 -14.1323 24.098
rtibia 41.9743
rfoot -14.7635 -8.30673
rtoes -7.34101
lfemur -27.5593 12.9561 -15.5856
ltibia 36.6047
lfoot -10.8673 -13.0973
ltoes -12.2634
2565
root -0.96717 17.4764 -0.139879 7.4036 9.30744 1.11917
lowerback 13.3063 -0.817843 3.24076
upperback 2.47145 -0.315392 5.2809
thorax -4.84725 -0.162657 3.79235
lowerneck -12.5461 -1.66124 2.13822
upperneck -17.495 -3.97184 -13.3415
head -3.45211 -1.72419 -4.55572
rclavicle -2.22639e-014 -6.36111e-014
rhumerus 74.3246 -33.9751 -38.2889
rradius 62.593
rwrist -11.5006
rhand -21.602 7.18497
rfingers 7.12502
rthumb 4.79306 -22.7408
lclavicle -2.22639e-014 -6.36111e-014
lhumerus 47.0555 5.69653 -20.6823
lradius 83.5717
lwrist 46.2064
lhand 8.03087 11.575
lfingers 7.12502
lthumb 33.2564 38.5207
rfemur -29.1584 -14.1618 24.1091
rtibia 41.9347
rfoot -14.7933 -8.32815
rtoes -7.33557
lfemur -27.5608 12.9516 -15.5878
ltibia 36.5833
lfoot -10.9519 -13.0726
ltoes -12.9492
2566
root -0.966586 17.4781 -0.13687 7.43765 9.35828 1.2026
lowerback 13.2328 -0.801345 3.16491
upperback 2.48639 -0.312126 5.24601
thorax -4.79086 -0.16017 3.79529
lowerneck -12.7254 -1.7085 2.04987
upperneck -17.4009 -4.00588 -13.2844
head -3.39774 -1.74741 -4.52459
rclavicle 3.26007e-014 -2.06736e-014
rhumerus 74.8477 -34.007 -39.047
rradius 62.5437
rwrist -11.3333
rhand -21.6524 7.03577
rfingers 7.12502
rthumb 4.74442 -22.8911
lclavicle 3.26007e-014 -2.06736e-014
lhumerus 46.9385 6.11521 -20.4532
lradius 83.5116
lwrist 46.6551
lhand 7.44284 10.904
lfingers 7.12502
lthumb 32.6971 37.9677
rfemur -29.1498 -14.1913 24.026
rtibia 41.8862
rfoot -14.7454 -8.39323
rtoes -7.65398
lfemur -27.5772 12.8904 -15.674
ltibia 36.569
lfoot -10.8679 -13.1181
ltoes -12.3528
